<svg width="30" height="26" viewBox="0 0 30 26" fill="none" xmlns="http://www.w3.org/2000/svg">
<path fill-rule="evenodd" clip-rule="evenodd" d="M25.285 17.7074C25.4117 17.6346 25.5171 17.5297 25.5905 17.4034C25.664 17.277 25.7029 17.1335 25.7033 16.9874L25.7183 12.1649C25.7188 12.0187 25.7577 11.8752 25.8311 11.7489C25.9045 11.6225 26.0099 11.5176 26.1367 11.4449L28.7508 9.94319C28.8775 9.87043 29.0211 9.83226 29.1672 9.8325C29.3133 9.83275 29.4568 9.8714 29.5833 9.94459C29.7097 10.0178 29.8147 10.1229 29.8877 10.2495C29.9607 10.3761 29.9991 10.5196 29.9992 10.6657V19.4332C29.9991 19.5798 29.9605 19.7238 29.887 19.8506C29.8136 19.9775 29.7079 20.0827 29.5808 20.1557L19.715 25.8224C19.589 25.8947 19.4462 25.9328 19.3009 25.933C19.1556 25.9331 19.0128 25.8953 18.8867 25.8232L11.1442 21.3949C11.0166 21.322 10.9106 21.2167 10.8368 21.0897C10.7631 20.9627 10.7242 20.8184 10.7242 20.6715V16.2507C10.7242 16.2457 10.73 16.2424 10.735 16.2449C10.7392 16.2474 10.745 16.2449 10.745 16.239V16.234C10.745 16.2307 10.7467 16.2274 10.75 16.2257L17.1267 12.5624C17.1325 12.559 17.13 12.5499 17.1233 12.5499C17.1216 12.5499 17.1199 12.5492 17.1186 12.5479C17.1174 12.5467 17.1167 12.545 17.1167 12.5432L17.1292 8.20902C17.1297 8.06246 17.0917 7.91834 17.0188 7.79119C16.9459 7.66405 16.8407 7.55838 16.7139 7.48485C16.5872 7.41131 16.4432 7.37252 16.2967 7.37237C16.1501 7.37223 16.0061 7.41074 15.8792 7.48402L11.14 10.2149C11.0135 10.2877 10.8701 10.326 10.7242 10.326C10.5782 10.326 10.4348 10.2877 10.3083 10.2149L5.55417 7.47735C5.42751 7.40442 5.28389 7.36608 5.13774 7.36619C4.99158 7.36629 4.84802 7.40484 4.72147 7.47795C4.59491 7.55106 4.48981 7.65617 4.41671 7.78274C4.34362 7.9093 4.30509 8.05286 4.305 8.19902V16.0324C4.3051 16.1784 4.26684 16.3218 4.19405 16.4484C4.12126 16.5749 4.01649 16.6802 3.89024 16.7535C3.76399 16.8268 3.62069 16.8657 3.47469 16.8662C3.32869 16.8668 3.18511 16.8289 3.05833 16.7565L0.420001 15.2482C0.29221 15.1752 0.18603 15.0697 0.112258 14.9423C0.0384864 14.815 -0.000245584 14.6704 1.17169e-06 14.5232L0.0233345 0.83152C0.0236521 0.685557 0.0623028 0.542237 0.135418 0.415905C0.208534 0.289574 0.313549 0.184663 0.439952 0.111672C0.566356 0.0386823 0.709715 0.000173543 0.855678 5.85195e-07C1.00164 -0.000172373 1.14509 0.0379965 1.27167 0.110687L10.3092 5.30152C10.4355 5.37404 10.5785 5.41221 10.7242 5.41221C10.8698 5.41221 11.0129 5.37404 11.1392 5.30152L20.1742 0.110687C20.3009 0.0378914 20.4446 -0.000280532 20.5908 2.52235e-06C20.737 0.000285576 20.8805 0.0390136 21.007 0.1123C21.1334 0.185585 21.2384 0.290851 21.3114 0.41753C21.3843 0.544209 21.4226 0.687845 21.4225 0.83402V14.529C21.4226 14.6755 21.384 14.8194 21.3107 14.9463C21.2374 15.0731 21.132 15.1784 21.005 15.2515L16.2733 17.9765C16.1462 18.0498 16.0407 18.1553 15.9675 18.2824C15.8943 18.4095 15.8559 18.5537 15.8562 18.7004C15.8565 18.8471 15.8956 18.9911 15.9694 19.1179C16.0433 19.2446 16.1492 19.3497 16.2767 19.4224L18.8867 20.9082C19.0128 20.98 19.1555 21.0176 19.3006 21.0173C19.4458 21.017 19.5883 20.9788 19.7142 20.9065L25.285 17.7074ZM25.8325 5.42235C25.8326 5.56973 25.8718 5.71443 25.9461 5.84172C26.0204 5.969 26.1271 6.07431 26.2553 6.14691C26.3836 6.2195 26.5288 6.25679 26.6761 6.25496C26.8235 6.25314 26.9678 6.21227 27.0942 6.13652L29.5942 4.63652C29.7176 4.56257 29.8197 4.45792 29.8907 4.33277C29.9617 4.20762 29.9991 4.06623 29.9992 3.92235V0.865687C29.9989 0.718385 29.9596 0.573785 29.8853 0.446618C29.8109 0.319451 29.7042 0.21426 29.576 0.141762C29.4478 0.0692648 29.3026 0.0320506 29.1553 0.0339111C29.008 0.0357716 28.8639 0.0766402 28.7375 0.152354L26.2375 1.65235C26.1141 1.72631 26.0119 1.83095 25.9409 1.9561C25.87 2.08125 25.8326 2.22265 25.8325 2.36652V5.42235Z" fill="#5DB6FF"/>
</svg>
