<svg width="47" height="32" viewBox="0 0 47 32" fill="none" xmlns="http://www.w3.org/2000/svg">
<path d="M24.05 14.1C25.1822 14.1 26.1 13.1822 26.1 12.05C26.1 10.9178 25.1822 10 24.05 10C22.9178 10 22 10.9178 22 12.05C22 13.1822 22.9178 14.1 24.05 14.1Z" fill="#5DB6FF"/>
<path d="M24 16.4C30.0751 16.4 35 14.5196 35 12.2C35 9.8804 30.0751 8 24 8C17.9249 8 13 9.8804 13 12.2C13 14.5196 17.9249 16.4 24 16.4Z" stroke="#5DB6FF"/>
<path d="M20.5 9.52647C17.4625 14.7877 16.6285 19.993 18.6374 21.1528C20.6462 22.3126 24.7371 18.9877 27.7747 13.7265C30.8122 8.46526 31.6462 3.25999 29.6374 2.1002C27.6285 0.940397 23.5376 4.26526 20.5 9.52647Z" stroke="#5DB6FF"/>
<path d="M20.5 13.7263C23.5376 18.9875 27.6285 22.3124 29.6374 21.1526C31.6462 19.9928 30.8122 14.7875 27.7747 9.52628C24.7371 4.26506 20.6462 0.940202 18.6374 2.1C16.6285 3.2598 17.4625 8.46506 20.5 13.7263Z" stroke="#5DB6FF"/>
<path d="M0.712 30V24.32H3.112C3.35733 24.32 3.58133 24.3707 3.784 24.472C3.98667 24.5733 4.16267 24.712 4.312 24.888C4.46667 25.0587 4.584 25.2507 4.664 25.464C4.74933 25.672 4.792 25.8853 4.792 26.104C4.792 26.376 4.73867 26.632 4.632 26.872C4.53067 27.112 4.384 27.3147 4.192 27.48C4.00533 27.6453 3.784 27.7547 3.528 27.808L4.92 30H4.288L2.952 27.904H1.272V30H0.712ZM1.272 27.408H3.128C3.352 27.408 3.54667 27.3467 3.712 27.224C3.87733 27.1013 4.00533 26.9413 4.096 26.744C4.18667 26.5413 4.232 26.328 4.232 26.104C4.232 25.8747 4.17867 25.664 4.072 25.472C3.97067 25.2747 3.832 25.1173 3.656 25C3.48533 24.8773 3.29333 24.816 3.08 24.816H1.272V27.408ZM7.50156 30.08C7.2029 30.08 6.92556 30.024 6.66956 29.912C6.41356 29.7947 6.19223 29.6373 6.00556 29.44C5.8189 29.2373 5.67223 29.0053 5.56556 28.744C5.46423 28.4827 5.41356 28.2027 5.41356 27.904C5.41356 27.5147 5.50156 27.1573 5.67756 26.832C5.8589 26.5067 6.1069 26.248 6.42156 26.056C6.73623 25.8587 7.09356 25.76 7.49356 25.76C7.90423 25.76 8.26156 25.8587 8.56556 26.056C8.8749 26.2533 9.11756 26.5147 9.29356 26.84C9.46956 27.16 9.55756 27.512 9.55756 27.896C9.55756 27.9387 9.55756 27.9813 9.55756 28.024C9.55756 28.0613 9.5549 28.0907 9.54956 28.112H5.98156C6.00823 28.4107 6.0909 28.6773 6.22956 28.912C6.37356 29.1413 6.55756 29.3253 6.78156 29.464C7.0109 29.5973 7.2589 29.664 7.52556 29.664C7.79756 29.664 8.05356 29.5947 8.29356 29.456C8.5389 29.3173 8.70956 29.136 8.80556 28.912L9.27756 29.04C9.19223 29.2373 9.06156 29.416 8.88556 29.576C8.70956 29.736 8.50156 29.8613 8.26156 29.952C8.0269 30.0373 7.77356 30.08 7.50156 30.08ZM5.96556 27.72H9.04556C9.02423 27.416 8.94156 27.1493 8.79756 26.92C8.6589 26.6907 8.4749 26.512 8.24556 26.384C8.02156 26.2507 7.77356 26.184 7.50156 26.184C7.22956 26.184 6.98156 26.2507 6.75756 26.384C6.53356 26.512 6.34956 26.6933 6.20556 26.928C6.0669 27.1573 5.9869 27.4213 5.96556 27.72ZM10.0609 28.8C10.0609 28.5387 10.1355 28.3147 10.2849 28.128C10.4342 27.936 10.6395 27.7893 10.9009 27.688C11.1675 27.5813 11.4742 27.528 11.8209 27.528C12.0235 27.528 12.2342 27.544 12.4529 27.576C12.6715 27.608 12.8662 27.656 13.0369 27.72V27.368C13.0369 27.016 12.9329 26.736 12.7249 26.528C12.5169 26.32 12.2289 26.216 11.8609 26.216C11.6369 26.216 11.4155 26.2587 11.1969 26.344C10.9835 26.424 10.7595 26.544 10.5249 26.704L10.3169 26.32C10.5889 26.1333 10.8555 25.9947 11.1169 25.904C11.3782 25.808 11.6449 25.76 11.9169 25.76C12.4289 25.76 12.8342 25.9067 13.1329 26.2C13.4315 26.4933 13.5809 26.8987 13.5809 27.416V29.344C13.5809 29.4187 13.5969 29.4747 13.6289 29.512C13.6609 29.544 13.7115 29.5627 13.7809 29.568V30C13.7222 30.0053 13.6715 30.0107 13.6289 30.016C13.5862 30.0213 13.5542 30.0213 13.5329 30.016C13.3995 30.0107 13.2982 29.968 13.2289 29.888C13.1595 29.808 13.1222 29.7227 13.1169 29.632L13.1089 29.328C12.9222 29.568 12.6795 29.7547 12.3809 29.888C12.0822 30.016 11.7782 30.08 11.4689 30.08C11.2022 30.08 10.9595 30.024 10.7409 29.912C10.5275 29.7947 10.3595 29.64 10.2369 29.448C10.1195 29.2507 10.0609 29.0347 10.0609 28.8ZM12.8529 29.12C12.9115 29.0453 12.9569 28.9733 12.9889 28.904C13.0209 28.8347 13.0369 28.7733 13.0369 28.72V28.112C12.8555 28.0427 12.6662 27.9893 12.4689 27.952C12.2769 27.9147 12.0822 27.896 11.8849 27.896C11.4955 27.896 11.1809 27.9733 10.9409 28.128C10.7009 28.2827 10.5809 28.4933 10.5809 28.76C10.5809 28.9147 10.6209 29.0613 10.7009 29.2C10.7809 29.3333 10.8982 29.4453 11.0529 29.536C11.2075 29.6213 11.3889 29.664 11.5969 29.664C11.8582 29.664 12.1009 29.6133 12.3249 29.512C12.5542 29.4107 12.7302 29.28 12.8529 29.12ZM16.5643 30.08C16.2603 30.08 15.9803 30.024 15.7243 29.912C15.4736 29.7947 15.2523 29.6347 15.0603 29.432C14.8736 29.2293 14.7269 28.9973 14.6203 28.736C14.5189 28.4747 14.4683 28.1973 14.4683 27.904C14.4683 27.5093 14.5563 27.1493 14.7323 26.824C14.9083 26.4987 15.1536 26.24 15.4683 26.048C15.7829 25.856 16.1456 25.76 16.5563 25.76C16.9456 25.76 17.2896 25.8507 17.5883 26.032C17.8869 26.208 18.1083 26.448 18.2523 26.752L17.7243 26.92C17.6069 26.7067 17.4416 26.5413 17.2283 26.424C17.0203 26.3013 16.7883 26.24 16.5323 26.24C16.2549 26.24 16.0016 26.312 15.7723 26.456C15.5429 26.6 15.3589 26.7973 15.2203 27.048C15.0869 27.2987 15.0203 27.584 15.0203 27.904C15.0203 28.2187 15.0896 28.504 15.2283 28.76C15.3669 29.016 15.5509 29.2213 15.7803 29.376C16.0096 29.5253 16.2629 29.6 16.5403 29.6C16.7216 29.6 16.8949 29.568 17.0603 29.504C17.2309 29.44 17.3776 29.3547 17.5003 29.248C17.6283 29.136 17.7136 29.016 17.7563 28.888L18.2923 29.048C18.2176 29.2453 18.0923 29.424 17.9163 29.584C17.7456 29.7387 17.5429 29.8613 17.3083 29.952C17.0789 30.0373 16.8309 30.08 16.5643 30.08ZM21.1469 29.8C21.1042 29.816 21.0375 29.8453 20.9469 29.888C20.8562 29.9307 20.7469 29.968 20.6189 30C20.4909 30.032 20.3522 30.048 20.2029 30.048C20.0482 30.048 19.9015 30.0187 19.7629 29.96C19.6295 29.9013 19.5229 29.8133 19.4429 29.696C19.3629 29.5733 19.3229 29.424 19.3229 29.248V26.264H18.7469V25.832H19.3229V24.424H19.8669V25.832H20.8269V26.264H19.8669V29.096C19.8775 29.2453 19.9309 29.3573 20.0269 29.432C20.1282 29.5067 20.2429 29.544 20.3709 29.544C20.5202 29.544 20.6562 29.52 20.7789 29.472C20.9015 29.4187 20.9762 29.3813 21.0029 29.36L21.1469 29.8ZM24.5376 25.352V30H23.9776V24.32H24.4416L28.1696 29.056V24.328H28.7296V30H28.2096L24.5376 25.352ZM29.6702 28.8C29.6702 28.5387 29.7449 28.3147 29.8943 28.128C30.0436 27.936 30.2489 27.7893 30.5103 27.688C30.7769 27.5813 31.0836 27.528 31.4303 27.528C31.6329 27.528 31.8436 27.544 32.0623 27.576C32.2809 27.608 32.4756 27.656 32.6463 27.72V27.368C32.6463 27.016 32.5423 26.736 32.3343 26.528C32.1263 26.32 31.8383 26.216 31.4703 26.216C31.2463 26.216 31.0249 26.2587 30.8063 26.344C30.5929 26.424 30.3689 26.544 30.1343 26.704L29.9263 26.32C30.1983 26.1333 30.4649 25.9947 30.7263 25.904C30.9876 25.808 31.2543 25.76 31.5263 25.76C32.0383 25.76 32.4436 25.9067 32.7423 26.2C33.0409 26.4933 33.1903 26.8987 33.1903 27.416V29.344C33.1903 29.4187 33.2063 29.4747 33.2383 29.512C33.2703 29.544 33.3209 29.5627 33.3903 29.568V30C33.3316 30.0053 33.2809 30.0107 33.2383 30.016C33.1956 30.0213 33.1636 30.0213 33.1423 30.016C33.0089 30.0107 32.9076 29.968 32.8383 29.888C32.7689 29.808 32.7316 29.7227 32.7263 29.632L32.7183 29.328C32.5316 29.568 32.2889 29.7547 31.9903 29.888C31.6916 30.016 31.3876 30.08 31.0783 30.08C30.8116 30.08 30.5689 30.024 30.3503 29.912C30.1369 29.7947 29.9689 29.64 29.8463 29.448C29.7289 29.2507 29.6702 29.0347 29.6702 28.8ZM32.4623 29.12C32.5209 29.0453 32.5663 28.9733 32.5983 28.904C32.6303 28.8347 32.6463 28.7733 32.6463 28.72V28.112C32.4649 28.0427 32.2756 27.9893 32.0783 27.952C31.8863 27.9147 31.6916 27.896 31.4943 27.896C31.1049 27.896 30.7903 27.9733 30.5503 28.128C30.3103 28.2827 30.1903 28.4933 30.1903 28.76C30.1903 28.9147 30.2303 29.0613 30.3103 29.2C30.3903 29.3333 30.5076 29.4453 30.6623 29.536C30.8169 29.6213 30.9983 29.664 31.2063 29.664C31.4676 29.664 31.7103 29.6133 31.9343 29.512C32.1636 29.4107 32.3396 29.28 32.4623 29.12ZM36.3344 29.8C36.2917 29.816 36.225 29.8453 36.1344 29.888C36.0437 29.9307 35.9344 29.968 35.8064 30C35.6784 30.032 35.5397 30.048 35.3904 30.048C35.2357 30.048 35.089 30.0187 34.9504 29.96C34.817 29.9013 34.7104 29.8133 34.6304 29.696C34.5504 29.5733 34.5104 29.424 34.5104 29.248V26.264H33.9344V25.832H34.5104V24.424H35.0544V25.832H36.0144V26.264H35.0544V29.096C35.065 29.2453 35.1184 29.3573 35.2144 29.432C35.3157 29.5067 35.4304 29.544 35.5584 29.544C35.7077 29.544 35.8437 29.52 35.9664 29.472C36.089 29.4187 36.1637 29.3813 36.1904 29.36L36.3344 29.8ZM37.0141 30V25.832H37.5581V30H37.0141ZM37.0141 24.96V24.16H37.5581V24.96H37.0141ZM39.9963 30L38.3083 25.832H38.8763L40.3003 29.456L41.7323 25.832H42.2682L40.5803 30H39.9963ZM44.6813 30.08C44.3826 30.08 44.1053 30.024 43.8493 29.912C43.5933 29.7947 43.3719 29.6373 43.1853 29.44C42.9986 29.2373 42.8519 29.0053 42.7453 28.744C42.6439 28.4827 42.5933 28.2027 42.5933 27.904C42.5933 27.5147 42.6813 27.1573 42.8573 26.832C43.0386 26.5067 43.2866 26.248 43.6013 26.056C43.9159 25.8587 44.2733 25.76 44.6733 25.76C45.0839 25.76 45.4413 25.8587 45.7453 26.056C46.0546 26.2533 46.2973 26.5147 46.4733 26.84C46.6493 27.16 46.7373 27.512 46.7373 27.896C46.7373 27.9387 46.7373 27.9813 46.7373 28.024C46.7373 28.0613 46.7346 28.0907 46.7293 28.112H43.1613C43.1879 28.4107 43.2706 28.6773 43.4093 28.912C43.5533 29.1413 43.7373 29.3253 43.9613 29.464C44.1906 29.5973 44.4386 29.664 44.7053 29.664C44.9773 29.664 45.2333 29.5947 45.4733 29.456C45.7186 29.3173 45.8893 29.136 45.9853 28.912L46.4573 29.04C46.3719 29.2373 46.2413 29.416 46.0653 29.576C45.8893 29.736 45.6813 29.8613 45.4413 29.952C45.2066 30.0373 44.9533 30.08 44.6813 30.08ZM43.1453 27.72H46.2253C46.2039 27.416 46.1213 27.1493 45.9773 26.92C45.8386 26.6907 45.6546 26.512 45.4253 26.384C45.2013 26.2507 44.9533 26.184 44.6813 26.184C44.4093 26.184 44.1613 26.2507 43.9373 26.384C43.7133 26.512 43.5293 26.6933 43.3853 26.928C43.2466 27.1573 43.1666 27.4213 43.1453 27.72Z" fill="#5DB6FF"/>
</svg>
