<svg width="120" height="100" viewBox="0 0 120 100" fill="none" xmlns="http://www.w3.org/2000/svg">
<path fill-rule="evenodd" clip-rule="evenodd" d="M100.387 7.085L102.917 10.4839C103.581 11.3809 103.415 12.6667 102.536 13.3445L99.8497 15.4277C100.338 16.7533 100.651 18.1686 100.778 19.6139L103.835 20.0425C104.928 20.192 105.69 21.2286 105.544 22.3449L104.977 26.581C104.831 27.6973 103.815 28.4847 102.721 28.3253L99.3812 27.8568C98.7852 29.1825 98.0237 30.3985 97.1252 31.4849L99.0002 33.9967C99.6642 34.8937 99.4887 36.1795 98.6097 36.8573L95.2792 39.4388C94.4002 40.1166 93.1407 39.9372 92.4767 39.0501L90.4352 36.3091C89.1267 36.8074 87.7497 37.1264 86.3237 37.256L85.9037 40.3757C85.7572 41.492 84.7417 42.2695 83.6477 42.12L79.4972 41.5419C78.4032 41.3924 77.6417 40.3558 77.7882 39.2394L78.2472 35.8307C76.9582 35.2227 75.7567 34.4452 74.6922 33.5382L72.2313 35.4419C71.3523 36.1197 70.0923 35.9503 69.4283 35.0532L66.8988 31.6543C66.2348 30.7573 66.4008 29.4715 67.2798 28.7937L69.9653 26.7106C69.4773 25.3749 69.1648 23.9696 69.0378 22.5243L65.9808 22.0957C64.8873 21.9462 64.1153 20.9096 64.2718 19.7933L64.8383 15.5572C64.9943 14.4409 66.0003 13.6634 67.0943 13.8129L70.4342 14.2814C71.0297 12.9657 71.7917 11.7397 72.6802 10.6533L70.8153 8.14153C70.1508 7.25444 70.3173 5.96867 71.1958 5.29092L74.5262 2.70938C75.4052 2.03161 76.6652 2.20105 77.3292 3.0981L79.3702 5.83908C80.6692 5.34077 82.0557 5.02179 83.4722 4.89221L83.8922 1.77245C84.0387 0.656122 85.0542 -0.131294 86.1482 0.0182148L90.2987 0.596316C91.3922 0.745827 92.1637 1.78242 92.0077 2.89876L91.5487 6.30755C92.8477 6.91556 94.0392 7.69301 95.1132 8.61L97.5742 6.70628C98.4532 6.01852 99.7132 6.18796 100.387 7.085ZM28.9768 66.8985V50.4527H37.2778C38.8213 50.4527 39.9928 50.5822 40.8038 50.8613C41.6143 51.1306 42.2783 51.6286 42.7668 52.3566C43.2648 53.0939 43.5188 53.9811 43.5188 55.0275C43.5188 55.9347 43.3233 56.7321 42.9423 57.3898C42.5613 58.0577 42.0343 58.5959 41.3703 59.0046C40.9503 59.2638 40.3643 59.4832 39.6218 59.6525C40.2178 59.8617 40.6473 60.051 40.9108 60.2602C41.0968 60.4 41.3603 60.6893 41.7023 61.1275C42.0438 61.5663 42.2783 61.9148 42.3953 62.1541L44.8173 66.9087H39.1923L36.5358 61.8949C36.1938 61.2474 35.9008 60.8189 35.6373 60.6291C35.2758 60.3801 34.8658 60.2505 34.4163 60.2505H33.9768V66.9087H28.9768V66.8985ZM46.5363 95.5347H37.2388L35.9008 100H27.5218L37.5123 72.899H46.4973L56.4493 100H47.8548L46.5363 95.5347ZM44.7978 89.6638L41.8973 79.9158L38.9873 89.6638H44.7978ZM58.3828 72.899H72.0357C75.0147 72.899 77.2412 73.6168 78.7157 75.0617C80.1907 76.5071 80.9327 78.5704 80.9327 81.2316C80.9327 83.9725 80.1222 86.1158 78.5107 87.6607C76.8992 89.2056 74.4287 89.973 71.1177 89.973H66.6158V100H58.3828V72.899ZM66.6158 84.4811H68.6373C70.2293 84.4811 71.3522 84.202 71.9967 83.6337C72.6412 83.0755 72.9638 82.348 72.9638 81.4806C72.9638 80.6337 72.6802 79.9061 72.1237 79.3179C71.5672 78.7296 70.5123 78.4306 68.9693 78.4306H66.6158V84.4811ZM84.2532 72.899H92.4862V100H84.2532V72.899ZM33.9768 57.1306H36.0768C36.3013 57.1306 36.7408 57.051 37.3953 56.9015C37.7273 56.8316 38.0008 56.6622 38.2058 56.3832C38.4208 56.1041 38.5183 55.7852 38.5183 55.4265C38.5183 54.898 38.3523 54.4796 38.0203 54.2005C37.6883 53.9112 37.0728 53.7719 36.1648 53.7719H33.9768V57.1306ZM45.7748 50.4527H59.1053V53.9612H50.7748V56.5827H58.4998V59.9316H50.7748V63.1709H59.3498V66.8888H45.7748V50.4527ZM60.5313 61.4566L65.2583 61.1577C65.3558 61.9449 65.5708 62.5332 65.8833 62.9418C66.4008 63.5995 67.1333 63.9383 68.0808 63.9383C68.7838 63.9383 69.3403 63.7689 69.7213 63.4301C70.1023 63.0913 70.2973 62.6923 70.2973 62.2439C70.2973 61.8153 70.1118 61.4367 69.7508 61.098C69.3893 60.7587 68.5398 60.45 67.2018 60.1408C65.0238 59.6423 63.4708 58.9745 62.5333 58.1474C61.5958 57.3199 61.1273 56.2638 61.1273 54.9775C61.1273 54.1306 61.3713 53.3332 61.8498 52.5857C62.3283 51.8383 63.0508 51.2403 64.0178 50.8115C64.9848 50.3829 66.3033 50.1736 67.9828 50.1736C70.0438 50.1736 71.6063 50.5623 72.6903 51.3495C73.7643 52.1372 74.4092 53.373 74.6142 55.0872L69.9362 55.3765C69.8092 54.6291 69.5453 54.0806 69.1548 53.752C68.7543 53.4128 68.1978 53.2434 67.5043 53.2434C66.9283 53.2434 66.4888 53.373 66.1958 53.6224C65.9028 53.8714 65.7563 54.1806 65.7563 54.5393C65.7563 54.7985 65.8833 55.0275 66.1178 55.2469C66.3518 55.4561 66.8988 55.6653 67.7778 55.8551C69.9558 56.3332 71.5182 56.8219 72.4557 57.3102C73.3932 57.7985 74.0868 58.4066 74.5067 59.1342C74.9362 59.852 75.1512 60.6689 75.1512 61.5663C75.1512 62.6224 74.8683 63.5893 74.2918 64.4765C73.7253 65.3638 72.9248 66.0413 71.8993 66.5C70.8738 66.9587 69.5848 67.1878 68.0218 67.1878C65.2873 67.1878 63.3833 66.6495 62.3283 65.573C61.2738 64.4765 60.6778 63.1112 60.5313 61.4566ZM75.8737 50.4527H91.0212V54.5194H85.9427V66.8985H80.9622V54.5194H75.8737V50.4527ZM59.1153 11.4208C57.3278 11.2812 55.5213 11.3012 53.7343 11.4806C48.2358 12.0188 42.8938 14.0621 38.4793 17.5606C33.3713 21.5974 29.4943 27.6376 28.0003 35.6413L27.5313 38.1431L25.0898 38.5816C22.6973 39.0102 20.5584 39.5983 18.6834 40.3458C16.8669 41.0635 15.2454 41.9506 13.8294 42.9971C12.6964 43.8344 11.7199 44.7713 10.8899 45.788C8.32138 48.9277 7.12989 52.8648 7.15939 56.8515C7.18839 60.8985 8.47738 64.9847 10.8604 68.3439C11.7494 69.5898 12.7749 70.7362 13.9469 71.7326C15.1384 72.7393 16.4759 73.5765 17.9799 74.2046C18.8299 74.5633 19.7379 74.8628 20.6854 75.1015V82.5673C18.7319 82.2082 16.9349 81.6704 15.2554 80.9622C13.0384 80.0255 11.0754 78.8194 9.34688 77.3444C7.70588 75.949 6.27039 74.3643 5.04989 72.6398C1.7974 68.0551 0.0394043 62.4531 0.00040443 56.8714C-0.0385955 51.2301 1.6804 45.6185 5.39139 41.0734C6.59289 39.5983 8.00888 38.2428 9.62988 37.0466C11.5149 35.6512 13.6734 34.4751 16.1149 33.5083C17.7944 32.8405 19.5914 32.2823 21.4864 31.8338C23.6349 23.1223 28.2148 16.4144 34.1038 11.7597C39.6123 7.40398 46.2433 4.86231 53.0698 4.1945C56.6543 3.84565 60.2873 4.00513 63.8423 4.6829C63.7638 5.01182 63.6958 5.34077 63.6563 5.67964L63.6468 5.73944C63.5783 6.30755 63.5493 6.87571 63.5783 7.45383C62.8263 7.75281 62.1233 8.16148 61.4883 8.65985L61.4593 8.6798C60.5118 9.4074 59.7108 10.3443 59.1153 11.4208ZM110.788 30.558C111.335 31.0663 111.862 31.5945 112.38 32.1627C113.425 33.3089 114.411 34.6047 115.339 36.0499C118.464 40.9538 120.066 47.5023 119.998 53.9112C119.929 60.2005 118.269 66.4602 114.87 71.0648C112.653 74.0653 109.812 76.5168 106.403 78.4607C104.069 79.7964 101.442 80.9026 98.5802 81.8V74.075C100.123 73.4872 101.559 72.8291 102.878 72.0816C105.446 70.6163 107.546 68.8321 109.118 66.6893C111.56 63.3704 112.761 58.6755 112.81 53.8612C112.868 48.8081 111.657 43.7347 109.304 40.0468C108.63 38.9803 107.888 38.0235 107.106 37.1663C106.804 36.8373 106.501 36.5284 106.188 36.2293C106.237 35.731 106.257 35.2227 106.227 34.7143C106.979 34.4153 107.682 34.0066 108.317 33.5083L108.347 33.4883C109.352 32.7009 110.192 31.7042 110.788 30.558ZM86.0212 12.7564C90.5232 13.3843 93.6677 17.6204 93.0527 22.2154C92.4372 26.8103 88.2867 30.0297 83.7847 29.4017C79.2822 28.7738 76.1277 24.5377 76.7527 19.9428C77.3777 15.3479 81.5187 12.1285 86.0212 12.7564Z" fill="#01B5E6"/>
</svg>
